<svg width="25" height="29" viewBox="0 0 25 29" fill="none" xmlns="http://www.w3.org/2000/svg">
<path d="M12.0498 0.500977C12.2046 0.501029 12.3534 0.563361 12.4629 0.672852C12.5722 0.782359 12.6338 0.93117 12.6338 1.08594V2.67578L13.084 2.7207C15.6347 2.97713 17.9991 4.17198 19.7188 6.07324C21.4384 7.97458 22.3908 10.4471 22.3906 13.0107V17.6025L22.4219 17.6875L23.4229 20.3555C23.5787 20.7717 23.6311 21.2201 23.5762 21.6611C23.5211 22.1021 23.3597 22.5234 23.1064 22.8887C22.8532 23.2539 22.5149 23.5526 22.1211 23.7588C21.7273 23.9649 21.2892 24.0722 20.8447 24.0723H15.9736V24.5723C15.9736 25.6138 15.5606 26.6131 14.8242 27.3496C14.0877 28.0861 13.0884 28.5 12.0469 28.5C11.0053 28.5 10.0061 28.0861 9.26953 27.3496C8.53305 26.6131 8.11914 25.6138 8.11914 24.5723V24.0723H3.25391L3.08691 24.0674C2.69979 24.0441 2.32132 23.9391 1.97656 23.7588C1.58243 23.5526 1.2437 23.2542 0.990234 22.8887C0.736825 22.5232 0.576405 22.1015 0.521484 21.6602C0.466593 21.2189 0.518784 20.7708 0.674805 20.3545L1.67676 17.6855L1.70898 17.6006V13.0088L1.71973 12.5293C1.8305 10.1384 2.76774 7.85374 4.37988 6.07129C6.09957 4.16995 8.4648 2.97512 11.0156 2.71875L11.4658 2.67383V1.08398L11.4766 0.969727C11.499 0.85739 11.5545 0.753094 11.6367 0.670898C11.718 0.589653 11.8217 0.534958 11.9346 0.512695L12.0498 0.500977ZM9.28809 24.585C9.30629 25.3044 9.60481 25.9888 10.1201 26.4912C10.5709 26.9306 11.1561 27.201 11.7773 27.2617L12.0459 27.2744C12.7656 27.2744 13.4573 26.9936 13.9727 26.4912C14.4879 25.9888 14.7865 25.3044 14.8047 24.585L14.8174 24.0723H9.27441L9.28809 24.585ZM12.0498 3.83594C10.8452 3.83594 9.65194 4.07321 8.53906 4.53418C7.42623 4.99515 6.41521 5.67171 5.56348 6.52344C4.71184 7.37514 4.03612 8.38626 3.5752 9.49902C3.11431 10.6118 2.87698 11.8044 2.87695 13.0088V17.5127C2.87695 17.6596 2.85599 17.8081 2.81641 17.9521L2.77051 18.0947L1.76953 20.7646C1.67986 21.0041 1.65011 21.2619 1.68164 21.5156C1.71325 21.7695 1.80546 22.0124 1.95117 22.2227C2.09684 22.4328 2.29108 22.6049 2.51758 22.7236C2.68751 22.8127 2.87212 22.8695 3.06152 22.8926L3.25195 22.9043H20.8457C21.1014 22.9041 21.3536 22.8423 21.5801 22.7236C21.8066 22.6049 22.0008 22.4328 22.1465 22.2227C22.2922 22.0124 22.3854 21.7695 22.417 21.5156C22.4406 21.3252 22.4287 21.1327 22.3838 20.9473L22.3281 20.7646L21.3262 18.0947H21.3271C21.258 17.9086 21.2226 17.7113 21.2227 17.5127V13.0088L21.2109 12.5576C21.1592 11.5074 20.9276 10.4726 20.5244 9.49902C20.0635 8.38635 19.3877 7.3751 18.5361 6.52344C17.6844 5.67168 16.6725 4.99515 15.5596 4.53418C14.586 4.13097 13.5512 3.8994 12.501 3.84766L12.0498 3.83594Z" fill="black" stroke="black"/>
</svg>
