<svg width="27" height="27" viewBox="0 0 27 27" fill="none" xmlns="http://www.w3.org/2000/svg">
<path d="M13.5 25.875C15.9475 25.875 18.3401 25.1492 20.3752 23.7894C22.4102 22.4297 23.9964 20.4969 24.933 18.2357C25.8696 15.9745 26.1147 13.4863 25.6372 11.0858C25.1597 8.68525 23.9811 6.48023 22.2504 4.74956C20.5198 3.01888 18.3148 1.84028 15.9142 1.36279C13.5137 0.885296 11.0255 1.13036 8.76429 2.067C6.50306 3.00363 4.57035 4.58977 3.21056 6.62482C1.85078 8.65988 1.125 11.0525 1.125 13.5C1.125 15.546 1.62 17.4738 2.5 19.1746L1.125 25.875L7.82538 24.5C9.52488 25.3786 11.4554 25.875 13.5 25.875Z" stroke="black" stroke-width="2" stroke-linecap="round" stroke-linejoin="round"/>
</svg>
