<svg width="29" height="25" viewBox="0 0 29 25" fill="none" xmlns="http://www.w3.org/2000/svg">
<path d="M20.8438 0C25.4294 0 29 3.42857 29 8.25C29 14.0536 23.9069 19.7321 15.6419 24.5893C15.3102 24.7946 14.8317 25 14.5 25C14.1864 25 13.6898 24.7946 13.3581 24.5893C5.09312 19.7321 0 14.0536 0 8.25C0 3.42857 3.57063 0 8.15625 0C11.0563 0 13.1587 1.48929 14.5 3.69643C15.8449 1.46429 17.9437 0 20.8438 0ZM20.8438 1.78571C18.7775 1.78571 17.1825 2.75714 16.0587 4.60714L14.4964 7.19643L12.9431 4.60714C11.8374 2.76786 10.2243 1.78571 8.15806 1.78571C4.51494 1.78571 1.81431 4.46429 1.81431 8.25C1.81431 13.0714 6.18244 18.3036 14.3206 23.0714L14.4402 23.1375L14.4946 23.1661L14.6359 23.0946L14.7121 23.05C22.8139 18.2821 27.1821 13.0679 27.1821 8.24643C27.1821 4.46071 24.4814 1.78214 20.8383 1.78214L20.8438 1.78571Z" fill="black"/>
</svg>
