<svg width="172" height="147" viewBox="0 0 172 147" fill="none" xmlns="http://www.w3.org/2000/svg">
<path d="M7.55344 113.624V35H47.1774L45.9294 47.272H22.8414V67.656H39.1694V80.552H22.8414V112.376L7.55344 113.624ZM47.0125 113.624V98.336H61.5725V112.376L47.0125 113.624ZM73.9753 113.624V36.248L89.2633 35V112.376L73.9753 113.624ZM101.755 113.624V98.336H116.315V112.376L101.755 113.624ZM138.806 113.624V47.168H122.894L124.038 35H169.798L168.55 47.168H153.99V112.376L138.806 113.624Z" fill="black"/>
<path d="M158 48L160.333 34.9655L172 34L169.667 48H158Z" fill="white"/>
<path d="M161 47.2L163.533 35H171L168.333 47.2H161Z" fill="black"/>
</svg>
