<svg width="27" height="27" viewBox="0 0 27 27" fill="none" xmlns="http://www.w3.org/2000/svg">
<path d="M13.375 25.75C15.8225 25.75 18.2151 25.0242 20.2502 23.6644C22.2852 22.3047 23.8714 20.3719 24.808 18.1107C25.7446 15.8495 25.9897 13.3613 25.5122 10.9608C25.0347 8.56025 23.8561 6.35523 22.1254 4.62456C20.3948 2.89388 18.1898 1.71528 15.7892 1.23779C13.3887 0.760296 10.9005 1.00536 8.63929 1.942C6.37806 2.87863 4.44535 4.46477 3.08556 6.49982C1.72578 8.53488 1 10.9275 1 13.375C1 15.421 1.495 17.3488 2.375 19.0496L1 25.75L7.70038 24.375C9.39988 25.2536 11.3304 25.75 13.375 25.75Z" stroke="#A6A6A6" stroke-width="2" stroke-linecap="round" stroke-linejoin="round"/>
</svg>
